HIERARCHY
ROOT Hips
{
  OFFSET 3.13124 94.3669 -3.18751
  CHANNELS  6 Xposition Yposition Zposition Zrotation Xrotation Yrotation
  JOINT LeftUpLeg
  {
    OFFSET 8.64259 1.95398 -2.38835
    CHANNELS 3 Zrotation Xrotation Yrotation
    JOINT LeftLeg
    {
      OFFSET 43.7702 0 0
      CHANNELS 3 Zrotation Xrotation Yrotation
      JOINT LeftFoot
      {
        OFFSET 40.6238 0 0
        CHANNELS 3 Zrotation Xrotation Yrotation
        JOINT LeftToeBase
        {
          OFFSET 12.7242 0 0
          CHANNELS 3 Zrotation Xrotation Yrotation
          End Site
          {
            OFFSET 0 0 0
          }
        }
      }
    }
  }
  JOINT RightUpLeg
  {
    OFFSET -8.2249 1.95398 -2.59336
    CHANNELS 3 Zrotation Xrotation Yrotation
    JOINT RightLeg
    {
      OFFSET 43.5653 0 0
      CHANNELS 3 Zrotation Xrotation Yrotation
      JOINT RightFoot
      {
        OFFSET 40.6238 0 0
        CHANNELS 3 Zrotation Xrotation Yrotation
        JOINT RightToeBase
        {
          OFFSET 12.7242 0 0
          CHANNELS 3 Zrotation Xrotation Yrotation
          End Site
          {
            OFFSET 0 0 0
          }
        }
      }
    }
  }
  JOINT Spine
  {
    OFFSET 0.165834 0.87714 6.61349
    CHANNELS 3 Zrotation Xrotation Yrotation
    JOINT Spine1
    {
      OFFSET 7.38962 1.71661e-005 0
      CHANNELS 3 Zrotation Xrotation Yrotation
      JOINT Spine2
      {
        OFFSET 11.9445 1.14441e-005 0
        CHANNELS 3 Zrotation Xrotation Yrotation
        JOINT Spine3
        {
          OFFSET 14.7254 4.19617e-005 0
          CHANNELS 3 Zrotation Xrotation Yrotation
          JOINT Spine4
          {
            OFFSET 10.9679 0 0
            CHANNELS 3 Zrotation Xrotation Yrotation
            JOINT RightShoulder
            {
              OFFSET 2.46616 -1.6653 3.69651
              CHANNELS 3 Zrotation Xrotation Yrotation
              JOINT RightArm
              {
                OFFSET 13.0012 0 0
                CHANNELS 3 Zrotation Xrotation Yrotation
                JOINT RightForeArm
                {
                  OFFSET 28.7848 1.52588e-005 0
                  CHANNELS 3 Zrotation Xrotation Yrotation
                  JOINT RightHand
                  {
                    OFFSET 26.5688 1.52588e-005 0
                    CHANNELS 3 Zrotation Xrotation Yrotation
                    End Site
                    {
                      OFFSET 0 0 0
                    }
                  }
                }
              }
            }
            JOINT LeftShoulder
            {
              OFFSET 2.38034 -1.29275 -3.75231
              CHANNELS 3 Zrotation Xrotation Yrotation
              JOINT LeftArm
              {
                OFFSET 16.3182 6.10352e-005 0
                CHANNELS 3 Zrotation Xrotation Yrotation
                JOINT LeftForeArm
                {
                  OFFSET 27.0901 0 0
                  CHANNELS 3 Zrotation Xrotation Yrotation
                  JOINT LeftHand
                  {
                    OFFSET 24.5451 1.52588e-005 0
                    CHANNELS 3 Zrotation Xrotation Yrotation
                    End Site
                    {
                      OFFSET 0 0 0
                    }
                  }
                }
              }
            }
            JOINT Neck
            {
              OFFSET 5.0226 -0.0266342 0
              CHANNELS 3 Zrotation Xrotation Yrotation
              JOINT Head
              {
                OFFSET 6.69363 2.86102e-005 0
                CHANNELS 3 Zrotation Xrotation Yrotation
                End Site
                {
                  OFFSET 0 0 0
                }
              }
            }
          }
        }
      }
    }
  }
}
MOTION
Frames:	8
Frame Time:	0.0333333
-0.913067 96.6704 -12.0761 62.7897 -89.9949 62.8853 -171.518 2.98554 91.4106 -9.47525 8.30174 1.45228 63.6667 1.36853 0.715395 28.7808 5.5925e-006 8.9408e-006 -179.401 2.01491 91.3516 -7.81969 0.780833 0.0376163 62.831 -1.14924 -0.579878 28.7808 1.42541e-005 2.66417e-005 0.00778291 6.33156 -90.098 14.1935 1.05356e-007 2.5388e-006 2.52251 -0.00274047 -5.53416e-006 -20.0126 0.0068989 7.53391e-006 -1.15179e-006 0.00690258 -3.09507e-009 100.964 -18.5474 -85.1451 15.664 45.3888 -39.3518 -3.27429 0.00468689 -4.91075 -5.37983 -0.320017 -0.0162409 -78.8219 -21.1362 94.6635 9.45877 -39.8688 -16.6169 3.87863 40.75 -11.968 -1.24357 -0.019869 2.87593 1.76559 -3.41154e-006 0.00279549 -7.42181 0.000347578 -0.00466977 
-0.899413 96.6358 -12.0265 36.2315 -89.9539 36.3132 -171.554 2.96052 91.3688 -9.42131 8.27465 1.45381 63.7909 1.62602 0.865408 28.7808 5.5925e-006 8.9408e-006 -179.432 2.30294 91.343 -8.37595 0.660691 0.0376153 62.8923 -1.42069 -0.737294 28.7808 1.42541e-005 2.66417e-005 0.0087325 6.33137 -90.1096 14.1934 1.05356e-007 4.07475e-005 2.52247 -0.00274047 3.30587e-005 -20.0127 0.0068989 4.2421e-005 -3.82654e-005 0.00690258 3.5333e-005 101.017 -18.5098 -85.01 15.7192 45.3101 -39.4311 -3.27429 0.00468689 -4.91075 -5.37983 -0.320017 -0.0162409 -78.7758 -21.1767 94.7724 9.53546 -39.9081 -16.6733 3.90464 40.8182 -12.0081 -1.25103 -0.0195137 2.85717 1.94113 0.0028134 0.0390363 -7.57836 0.00730878 -0.0750984 
-0.903756 96.6546 -11.9656 27.8899 -89.9594 28.0042 -171.505 2.94256 91.4217 -9.46197 8.2952 1.43892 63.8074 1.54016 0.815813 28.7808 5.5925e-006 8.9408e-006 -179.402 2.07828 91.3686 -8.01219 0.736366 0.0376159 62.8698 -1.26739 -0.648595 28.7808 1.42541e-005 2.66417e-005 0.00823101 6.33148 -90.103 14.1942 0.000159189 -0.000762922 2.52327 -0.00274047 -0.000770968 -20.0119 0.0068989 -0.000698241 0.000762524 0.00690258 -0.000699081 101.029 -18.5977 -84.9911 15.7023 45.3482 -39.4467 -3.27429 0.00468689 -4.91075 -5.37983 -0.320017 -0.0162409 -78.7487 -21.1074 94.8239 9.57644 -39.9322 -16.6343 3.9047 40.823 -12.0278 -1.17084 -0.0128931 3.02223 1.89927 0.0488922 -0.0467887 -7.46436 0.0376387 -0.0765488 
-0.883143 96.67 -11.9124 -15.6812 -89.8777 -15.5637 -171.531 2.96957 91.4021 -9.42673 8.19232 1.44093 63.7171 1.445 0.76043 28.7808 5.5925e-006 8.9408e-006 -179.401 2.02423 91.3589 -7.78552 0.746814 0.037616 62.7137 -1.26712 -0.646463 28.7808 1.42541e-005 2.66417e-005 0.0117568 6.33129 -90.1141 14.2138 0.00173623 -0.0215699 2.54289 -0.00274047 -0.0216341 -19.9923 0.0068989 -0.0200492 0.0203774 0.00690258 -0.0200568 101.05 -18.6626 -84.9333 15.7041 45.3939 -39.5943 -3.27429 0.00468689 -4.91075 -5.37983 -0.320017 -0.0162409 -78.699 -21.1577 94.9343 9.60005 -39.9083 -16.5677 3.78377 40.5747 -12.0227 -0.913678 0.00584833 3.19031 1.8477 0.0652854 -0.0455471 -7.35387 0.0707618 -0.00893819 
-0.865354 96.6232 -11.8528 13.6601 -89.8718 13.7401 -171.564 2.94726 91.3449 -9.45394 8.30865 1.46985 63.9285 1.66787 0.889909 28.7808 5.5925e-006 8.9408e-006 -179.451 2.58881 91.33 -8.98749 0.814486 0.0376166 63.106 -1.39034 -0.723196 28.7808 1.42541e-005 2.66417e-005 0.00591776 6.33132 -90.1122 14.2026 -0.0102349 -0.0246796 2.53166 -0.00274047 -0.0242158 -20.0035 0.0068989 -0.0266166 0.00915378 0.00690258 -0.026617 101.146 -18.5675 -84.6931 15.8287 45.197 -39.7281 -3.27429 0.00468689 -4.91075 -5.37983 -0.320017 -0.0162409 -78.6426 -21.2595 95.0703 9.64958 -39.9353 -16.6072 3.75645 40.5558 -11.9942 -1.0152 -0.0013623 3.14713 2.08762 0.0648557 0.0112166 -7.56292 0.0606155 0.0332216 
-0.868661 96.6592 -11.7908 5.09388 -89.8931 5.19992 -171.513 2.89898 91.4012 -9.46071 8.26533 1.44483 63.8136 1.38182 0.725254 28.7808 5.5925e-006 8.9408e-006 -179.408 1.91433 91.3316 -7.7702 0.767571 0.0376665 62.9585 -1.14976 -0.581724 28.7808 1.42541e-005 2.66417e-005 0.00845978 6.33123 -90.1172 14.2029 -0.00762489 -0.0370825 2.53192 -0.00274047 -0.0367104 -20.0032 0.0068989 -0.0376986 0.00941703 0.00690258 -0.0377046 101.113 -18.7531 -84.7643 15.7244 45.4013 -39.7246 -3.27429 0.00468689 -4.91075 -5.37983 -0.320017 -0.0162409 -78.6414 -21.294 95.0758 9.70251 -39.906 -16.4367 3.72237 40.4255 -12.0263 -0.889509 0.00808384 3.23865 2.0069 0.0861542 0.107724 -7.43806 0.0696696 -0.0486262 
-0.861525 96.6705 -11.7346 -0.251894 -89.8845 -0.130345 -171.491 2.8818 91.4199 -9.47613 8.34742 1.4476 63.7889 1.43122 0.752618 28.7808 5.5925e-006 8.9408e-006 -179.392 1.74206 91.3412 -7.47068 0.784765 0.0384992 62.8788 -1.06597 -0.532214 28.7808 1.42541e-005 2.66417e-005 0.00873377 6.33119 -90.1196 14.2093 -0.00593548 -0.0467793 2.5384 -0.00274047 -0.0463383 -19.9967 0.0068989 -0.0472701 0.0158918 0.00690258 -0.047277 101.093 -18.7212 -84.8183 15.6929 45.4071 -39.5723 -3.27429 0.00468689 -4.91075 -5.37983 -0.320017 -0.0162409 -78.6563 -21.3733 95.0419 9.79059 -39.9088 -16.2536 3.66921 40.3078 -12.0098 -0.779053 0.0163773 3.30622 1.93936 0.102985 0.181605 -7.33635 0.0758721 -0.0917992 
-0.849239 96.6574 -11.6835 7.08753 -89.8634 7.23858 -171.503 2.80612 91.4309 -9.34223 8.38608 1.45816 63.8807 1.62669 0.868168 28.7808 5.5925e-006 8.9408e-006 -179.381 1.5618 91.3678 -7.10976 0.782953 0.0393607 62.6783 -1.11367 -0.55441 28.7808 1.42541e-005 2.66417e-005 0.0119122 6.33027 -90.1524 14.2133 -0.00442185 -0.050758 2.54232 -0.00274047 -0.0503395 -19.9928 0.00711196 -0.0515375 0.0198021 0.00711568 -0.0515436 101.091 -18.7212 -84.8153 15.6833 45.3889 -39.4612 -3.27429 0.00468689 -4.91075 -5.37983 -0.320017 -0.0162409 -78.6433 -21.4985 95.0836 9.83876 -39.9047 -16.2458 3.68181 40.3917 -12.0044 -0.889711 0.00714905 3.16861 1.9619 0.121277 0.233818 -7.38743 0.0901116 -0.134554 
